<svg width="28" height="32" viewBox="0 0 28 32" fill="none" xmlns="http://www.w3.org/2000/svg">
<g id="date icon">
<path id="Path 32" fill-rule="evenodd" clip-rule="evenodd" d="M21.4398 0.00201105C21.6199 0.0573454 21.803 0.102618 21.979 0.171032C22.4141 0.344709 22.7878 0.643484 23.053 1.02958C23.3183 1.41568 23.463 1.87177 23.469 2.34014C23.469 2.68925 23.469 3.03936 23.469 3.43776H24.4047C25.171 3.42981 25.9202 3.66418 26.5453 4.10738C27.1704 4.55059 27.6396 5.17997 27.8857 5.90568C27.9589 6.13317 27.9949 6.37097 27.9924 6.60993C27.9964 12.4673 27.9964 18.3251 27.9924 24.1831C27.9924 25.4749 27.9833 26.7667 27.9994 28.0585C28.012 28.7237 27.8237 29.3773 27.4589 29.9337C27.0942 30.4902 26.5701 30.9236 25.9551 31.1774C25.4576 31.4201 24.9087 31.5386 24.3554 31.5225C17.4866 31.5225 10.6174 31.5225 3.74787 31.5225C3.25076 31.5311 2.75705 31.4389 2.29648 31.2517C1.83592 31.0644 1.41803 30.7858 1.06798 30.4328C0.717922 30.0797 0.44294 29.6594 0.25961 29.1973C0.0762801 28.7351 -0.0116081 28.2407 0.00122827 27.7436C0.00122827 20.8748 0.00122827 14.0056 0.00122827 7.13612C-0.00304574 6.64962 0.0894316 6.16711 0.273273 5.71666C0.457115 5.2662 0.728658 4.85678 1.07212 4.51219C1.41559 4.1676 1.82411 3.89472 2.27396 3.70941C2.72382 3.5241 3.20602 3.43006 3.69254 3.43274H4.90586C4.90586 3.11583 4.90586 2.8291 4.90586 2.54136C4.85286 1.9605 5.02117 1.38106 5.3771 0.91899C5.73303 0.456915 6.25032 0.146289 6.82547 0.0492938C6.85244 0.0369217 6.87724 0.0202788 6.89891 0H7.50255C7.54414 0.0254145 7.58833 0.0463213 7.63436 0.0623733C8.0857 0.147357 8.49975 0.369779 8.81979 0.699186C9.13983 1.02859 9.35022 1.44889 9.42215 1.9025C9.47901 2.3279 9.49686 2.7576 9.47548 3.18625C9.47548 3.35728 9.51773 3.44079 9.7109 3.43878C10.3608 3.43006 11.0111 3.43006 11.6617 3.43878C11.8508 3.43878 11.9052 3.36635 11.8991 3.19028C11.8891 2.90053 11.8941 2.60977 11.8991 2.32002C11.904 1.81784 12.071 1.33067 12.3752 0.931102C12.6794 0.53153 13.1045 0.240945 13.5873 0.102625L13.9294 0.00201105H14.4696C14.5113 0.0277764 14.5559 0.0483893 14.6025 0.0633866C14.9475 0.128733 15.2725 0.273467 15.5519 0.486153C15.8313 0.698839 16.0574 0.973642 16.2122 1.28879C16.423 1.73312 16.5122 2.22538 16.4707 2.71541C16.4707 2.94882 16.4707 3.18323 16.4707 3.41061H18.8733C18.8733 3.03534 18.8733 2.68624 18.8733 2.33813C18.8799 1.83471 19.047 1.34653 19.3503 0.944642C19.6536 0.542758 20.0772 0.248131 20.5595 0.103623C20.6731 0.0704224 20.7848 0.0352188 20.8985 0.00302426L21.4398 0.00201105ZM2.14217 8.83439V9.11306C2.14217 15.3199 2.14217 21.5267 2.14217 27.7336C2.12278 27.957 2.1527 28.182 2.22983 28.3926C2.30696 28.6032 2.42941 28.7943 2.58853 28.9523C2.74765 29.1104 2.93955 29.2316 3.15066 29.3073C3.36177 29.383 3.58693 29.4115 3.81024 29.3906C10.6375 29.3906 17.4651 29.3906 24.293 29.3906C24.5169 29.4112 24.7426 29.3824 24.9542 29.3062C25.1657 29.2299 25.3579 29.1081 25.5171 28.9493C25.6764 28.7906 25.7988 28.5987 25.8757 28.3874C25.9526 28.1761 25.9821 27.9505 25.9621 27.7265C25.9621 21.5298 25.9621 15.333 25.9621 9.1362C25.9621 9.03559 25.952 8.94304 25.946 8.83439H2.14217ZM6.16649 4.50824C6.16649 5.19841 6.16649 5.88757 6.16649 6.57774C6.15305 6.71976 6.16919 6.86302 6.21389 6.99848C6.2586 7.13394 6.33089 7.25868 6.42622 7.3648C6.52155 7.47092 6.63784 7.55614 6.76775 7.61506C6.89766 7.67398 7.03837 7.70534 7.18101 7.70715C7.32365 7.70897 7.46512 7.68119 7.59648 7.62559C7.72785 7.56999 7.84626 7.48776 7.94426 7.3841C8.04225 7.28043 8.11769 7.15759 8.16583 7.0233C8.21396 6.88902 8.23374 6.74621 8.22392 6.6039C8.23532 5.19539 8.23532 3.78688 8.22392 2.37837C8.23124 2.23737 8.20949 2.09637 8.16004 1.96412C8.11059 1.83188 8.03448 1.71121 7.93644 1.60961C7.83841 1.50801 7.72052 1.42764 7.59013 1.3735C7.45973 1.31936 7.3196 1.29261 7.17843 1.29489C7.03726 1.29717 6.89807 1.32844 6.7695 1.38677C6.64092 1.44509 6.5257 1.52921 6.43099 1.63393C6.33629 1.73864 6.26411 1.86171 6.21896 1.99549C6.1738 2.12926 6.15663 2.27089 6.1685 2.41158C6.16649 3.10879 6.16749 3.80901 6.16749 4.50924L6.16649 4.50824ZM15.2041 4.49817C15.2041 3.79392 15.2041 3.09873 15.2041 2.3985C15.2179 2.12154 15.1222 1.85026 14.9378 1.64321C14.7533 1.43617 14.4948 1.30995 14.2181 1.2918C14.0799 1.28954 13.9426 1.31475 13.8142 1.36597C13.6858 1.41718 13.5688 1.49337 13.47 1.59014C13.3713 1.68692 13.2928 1.80234 13.239 1.92971C13.1852 2.05707 13.1572 2.19383 13.1567 2.33208C13.1359 3.77145 13.1359 5.21115 13.1567 6.65118C13.1528 6.79197 13.1777 6.93208 13.2299 7.0629C13.2821 7.19371 13.3606 7.31246 13.4603 7.41187C13.5601 7.51127 13.6792 7.58923 13.8102 7.64094C13.9412 7.69266 14.0814 7.71705 14.2222 7.7126C14.3619 7.70306 14.4984 7.66592 14.6237 7.60333C14.749 7.54075 14.8607 7.45396 14.9522 7.34797C15.0438 7.24199 15.1135 7.11891 15.1572 6.98585C15.201 6.85278 15.2179 6.71237 15.2071 6.57272C15.2071 5.87853 15.2051 5.18834 15.2041 4.49817ZM20.157 4.47605C20.157 5.22558 20.1429 5.97611 20.1621 6.72564C20.1618 6.97194 20.2519 7.20979 20.4153 7.39409C20.5787 7.57839 20.804 7.69635 21.0486 7.72562C21.2931 7.75489 21.5399 7.69343 21.7422 7.55289C21.9445 7.41234 22.0882 7.20249 22.146 6.96308C22.1884 6.79882 22.2087 6.62966 22.2064 6.46004C22.2134 5.8906 22.2064 5.32014 22.2064 4.74969C22.2064 3.9901 22.2064 3.22952 22.2004 2.46993C22.2008 2.32022 22.1801 2.17119 22.139 2.02725C22.0769 1.79363 21.9327 1.59019 21.7329 1.45414C21.5331 1.3181 21.2909 1.25855 21.0508 1.2864C20.8107 1.31425 20.5886 1.42762 20.4252 1.60579C20.2618 1.78395 20.168 2.01499 20.161 2.25663C20.1429 2.9961 20.159 3.73658 20.158 4.47605H20.157Z" fill="black"/>
<path id="Path 33" fill-rule="evenodd" clip-rule="evenodd" d="M13.3549 17.4082V20.8822H9.45336V17.4082H13.3549Z" fill="black"/>
<path id="Path 34" fill-rule="evenodd" clip-rule="evenodd" d="M18.656 17.4102V20.8762H14.7443V17.4082L18.656 17.4102Z" fill="black"/>
<path id="Path 35" fill-rule="evenodd" clip-rule="evenodd" d="M8.01468 20.8822H4.15335C4.1386 20.797 4.12885 20.711 4.12416 20.6246C4.12416 19.6457 4.13322 18.6658 4.12416 17.6869C4.12416 17.4434 4.20565 17.385 4.43605 17.385C5.54273 17.3941 6.65445 17.385 7.76415 17.385C7.92311 17.385 8.06598 17.376 8.05995 17.6074C8.05089 18.6567 8.05191 19.7061 8.04788 20.7554C8.04152 20.7988 8.03038 20.8413 8.01468 20.8822Z" fill="black"/>
<path id="Path 36" fill-rule="evenodd" clip-rule="evenodd" d="M23.9419 20.8882H20.0796C20.0651 20.8013 20.0553 20.7136 20.0504 20.6256C20.0504 19.6467 20.0504 18.6668 20.0403 17.6879C20.0403 17.4525 20.1128 17.38 20.3492 17.3861C21.4559 17.3981 22.5676 17.3931 23.6773 17.3921C23.8333 17.3921 23.9791 17.377 23.9791 17.6104C23.9741 18.6497 23.9791 19.689 23.9791 20.7293C23.9711 20.7832 23.9587 20.8364 23.9419 20.8882Z" fill="black"/>
<path id="Path 37" fill-rule="evenodd" clip-rule="evenodd" d="M13.359 12.6997V16.1385H9.45438V12.6997H13.359Z" fill="black"/>
<path id="Path 38" fill-rule="evenodd" clip-rule="evenodd" d="M18.657 12.7068V16.1425H14.7494V12.7068H18.657Z" fill="black"/>
<path id="Path 39" fill-rule="evenodd" clip-rule="evenodd" d="M9.4463 22.1287H13.3469V25.5876C13.2241 25.5947 13.1074 25.6057 12.9907 25.6057C11.9112 25.6057 10.8317 25.6057 9.75115 25.6128C9.51271 25.6128 9.41814 25.5604 9.42217 25.2988C9.43826 24.3491 9.42921 23.3994 9.43123 22.4496C9.43223 22.353 9.43825 22.2555 9.4463 22.1287Z" fill="black"/>
<path id="Path 40" fill-rule="evenodd" clip-rule="evenodd" d="M18.6721 22.1398C18.6721 22.513 18.6721 22.8702 18.6721 23.2273C18.6721 23.9376 18.6721 24.6469 18.6721 25.3572C18.6721 25.5282 18.6328 25.6138 18.4407 25.6128C17.2605 25.6057 16.0814 25.6067 14.9013 25.6037C14.8478 25.5982 14.795 25.5881 14.7433 25.5735V22.1408L18.6721 22.1398Z" fill="black"/>
<path id="Path 41" fill-rule="evenodd" clip-rule="evenodd" d="M6.10712 12.6786C6.65745 12.6786 7.20777 12.6857 7.75709 12.6786C7.96736 12.6786 8.05892 12.7209 8.05892 12.9583C8.04685 13.9382 8.04785 14.9181 8.05892 15.8981C8.05892 16.0993 7.99554 16.1778 7.78426 16.1768C6.66416 16.17 5.54405 16.17 4.42395 16.1768C4.21167 16.1768 4.12214 16.1254 4.12214 15.893C4.13287 14.9131 4.13287 13.9332 4.12214 12.9533C4.12214 12.745 4.18854 12.6746 4.3978 12.6786C4.96725 12.6897 5.53769 12.6786 6.10814 12.6786H6.10712Z" fill="black"/>
<path id="Path 42" fill-rule="evenodd" clip-rule="evenodd" d="M22.0264 12.6816C22.5767 12.6816 23.127 12.6897 23.6763 12.6816C23.8886 12.6816 23.9782 12.7269 23.9782 12.9613C23.9681 13.9412 23.9721 14.9211 23.9782 15.9011C23.9782 16.1023 23.9137 16.1818 23.7024 16.1798C22.5723 16.171 21.4425 16.171 20.313 16.1798C20.0967 16.1798 20.0424 16.0983 20.0434 15.8981C20.0494 14.9181 20.0494 13.9382 20.0434 12.9583C20.0434 12.751 20.1098 12.6786 20.32 12.6826C20.8895 12.6937 21.4599 12.6826 22.0303 12.6826L22.0264 12.6816Z" fill="black"/>
<path id="Path 43" fill-rule="evenodd" clip-rule="evenodd" d="M4.16137 22.1348H8.02672C8.04071 22.2241 8.05011 22.3141 8.05489 22.4044C8.05489 23.3743 8.04885 24.3441 8.05489 25.314C8.05489 25.5303 7.99454 25.6158 7.76616 25.6107C6.64639 25.6017 5.52662 25.6107 4.40686 25.6107C4.23884 25.6107 4.11711 25.5937 4.11912 25.3753C4.12818 24.3361 4.12716 23.2958 4.13119 22.2565C4.13761 22.2151 4.14771 22.1744 4.16137 22.1348Z" fill="black"/>
<path id="Path 44" fill-rule="evenodd" clip-rule="evenodd" d="M20.0765 22.1317H23.9459C23.956 22.2323 23.9721 22.3169 23.9731 22.4034C23.9731 23.3733 23.9731 24.3431 23.9811 25.312C23.9811 25.5303 23.9158 25.6138 23.6914 25.6138C22.5716 25.6047 21.4519 25.6067 20.3331 25.6078C20.1651 25.6078 20.0463 25.5927 20.0484 25.3723C20.0554 24.3431 20.0484 23.3129 20.0484 22.2837C20.0537 22.2323 20.0631 22.1815 20.0765 22.1317Z" fill="black"/>
</g>
</svg>
