<svg width="19" height="19" viewBox="0 0 19 19" fill="none" xmlns="http://www.w3.org/2000/svg">
<g id="Group 27">
<path id="Path 83" d="M1.759 13.3853C1.65737 12.5436 1.73965 11.6898 2.00014 10.883C2.54031 9.23015 3.70076 7.85139 5.23714 7.03701C5.95037 6.62828 6.69978 6.28624 7.47587 6.01523C7.94885 5.90568 8.38258 5.66814 8.72959 5.32859C8.99832 4.94031 8.72959 4.59086 8.50276 4.37527C8.00413 3.93182 7.17444 3.86438 6.61859 3.44851C6.49895 3.39066 6.40237 3.29409 6.3445 3.17447C6.28664 3.05484 6.27088 2.91917 6.2998 2.78946C6.44591 2.158 7.14072 1.83614 7.61176 1.59398C9.05096 0.833456 10.6515 0.429107 12.2793 0.414843C11.3758 0.14551 10.4387 0.00583429 9.49593 0C7.69115 0.00242518 5.92433 0.518427 4.40192 1.48771C2.87952 2.45699 1.6644 3.83953 0.898555 5.47376C0.132712 7.10799 -0.152225 8.92643 0.077038 10.7166C0.306301 12.5068 1.0403 14.1947 2.19325 15.5832C2.11969 15.2889 2.00218 14.7494 1.92964 14.4807C1.87139 14.1047 1.81622 13.7552 1.759 13.3813" fill="#7D7D7D"/>
<path id="Path 84" d="M18.9944 9.49949C18.9933 8.06793 18.6675 6.65527 18.0417 5.36774C17.4159 4.08021 16.5063 2.95134 15.3814 2.06602C14.5195 1.80004 13.6123 1.71311 12.7155 1.81058C12.3599 1.86473 12.0003 1.93217 11.6406 1.9853C11.1492 2.12239 10.6788 2.32627 10.2428 2.59122C10.0558 2.71077 9.60728 2.88652 9.74216 3.26356C10.0323 4.04216 11.8337 4.19031 12.501 4.68792C12.7728 4.89227 13.1988 5.29281 12.876 5.74955C12.5827 6.15111 11.9563 6.28599 11.4782 6.47502C10.2417 6.8056 9.03432 7.23687 7.86821 7.7645C6.53915 8.53904 5.526 9.7577 5.00722 11.2059C4.88171 11.617 4.79817 12.0398 4.7579 12.4678C4.68331 12.9208 4.67403 13.3823 4.73032 13.838C4.76231 14.3257 4.82476 14.811 4.9173 15.2909C5.12492 16.1314 5.55359 16.901 6.15889 17.52C6.76419 18.1389 7.52406 18.5847 8.35969 18.811C8.50376 18.8386 9.10864 18.9448 9.60421 19C12.1049 18.9704 14.4932 17.9562 16.251 16.1773C18.0089 14.3985 18.9946 11.9983 18.9944 9.49745" fill="#7D7D7D"/>
</g>
</svg>
