<svg width="19" height="19" viewBox="0 0 19 19" fill="none" xmlns="http://www.w3.org/2000/svg">
<g id="Filter Logo">
<path id="Path 27" d="M7.14861 8.97806C7.34748 9.19464 7.45777 9.47802 7.45761 9.77207V18.4121C7.45744 18.5281 7.49159 18.6414 7.55577 18.738C7.61995 18.8345 7.71127 18.9099 7.81822 18.9546C7.92518 18.9993 8.04298 19.0113 8.15677 18.9892C8.27055 18.967 8.37524 18.9117 8.45761 18.8301L10.8676 16.0681C11.1906 15.6811 11.3676 15.4891 11.3676 15.1061V9.77407C11.3683 9.48019 11.4785 9.19711 11.6766 8.98006L18.5887 1.47601C18.7043 1.35045 18.7808 1.19399 18.8091 1.02569C18.8374 0.857386 18.8161 0.684498 18.7478 0.528079C18.6796 0.371661 18.5673 0.238461 18.4247 0.144701C18.2821 0.0509412 18.1153 0.000666739 17.9447 0L0.879562 0C0.708649 8.62535e-05 0.54146 0.0499408 0.398412 0.143475C0.255364 0.23701 0.14265 0.370176 0.0740332 0.52671C0.00541677 0.683245 -0.0161315 0.856373 0.0120197 1.02495C0.0401708 1.19353 0.116803 1.35026 0.232558 1.47601L7.14861 8.97806Z" fill="black"/>
</g>
</svg>
