<svg width="28" height="28" viewBox="0 0 28 28" fill="none" xmlns="http://www.w3.org/2000/svg">
<g id="refresh icon">
<path id="Ellipse 11" d="M14 28C21.732 28 28 21.732 28 14C28 6.26801 21.732 0 14 0C6.26801 0 0 6.26801 0 14C0 21.732 6.26801 28 14 28Z" fill="#0090FF"/>
<path id="Path 30" fill-rule="evenodd" clip-rule="evenodd" d="M10.537 7.22701L12.614 9.301H7.51401C7.39401 9.301 7.39301 9.30101 7.39301 9.18201C7.39301 7.51534 7.39301 5.84867 7.39301 4.18201V4.07701C7.42901 4.11101 7.452 4.131 7.474 4.153C8.044 4.723 8.61367 5.29367 9.18301 5.86501C9.19145 5.87791 9.20259 5.88882 9.21565 5.89702C9.22871 5.90521 9.24339 5.9105 9.25868 5.91249C9.27397 5.91449 9.28951 5.91316 9.30424 5.90858C9.31897 5.90401 9.33253 5.8963 9.34401 5.886C10.3031 5.28606 11.3683 4.87564 12.482 4.677C13.163 4.55419 13.8562 4.51257 14.547 4.55301C16.4119 4.65884 18.1974 5.34385 19.6545 6.51257C21.1117 7.6813 22.1679 9.2755 22.676 11.073C22.8434 11.667 22.9477 12.2771 22.987 12.893C23.0842 14.2918 22.8488 15.6937 22.3 16.984C22.29 17.008 22.278 17.031 22.263 17.062L21.582 16.662C21.325 16.513 21.07 16.362 20.811 16.215C20.744 16.177 20.738 16.142 20.765 16.076C21.0052 15.4718 21.1578 14.8364 21.218 14.189C21.3676 12.7448 21.0662 11.2898 20.355 10.024C19.4737 8.40469 17.9991 7.18997 16.241 6.63501C15.6266 6.4346 14.9869 6.32182 14.341 6.3C13.0443 6.24621 11.7577 6.54884 10.621 7.175C10.594 7.192 10.575 7.205 10.537 7.22701Z" fill="white"/>
<path id="Path 31" fill-rule="evenodd" clip-rule="evenodd" d="M5.78599 10.051L7.30899 10.969C6.97546 11.8411 6.81721 12.7703 6.84329 13.7036C6.86937 14.6369 7.07928 15.5559 7.46099 16.408C8.02832 17.7168 8.9796 18.8226 10.189 19.579C11.2801 20.2791 12.5417 20.6678 13.8376 20.7031C15.1336 20.7383 16.4145 20.4188 17.542 19.779L15.497 17.734L15.508 17.709C15.538 17.709 15.568 17.704 15.598 17.704C17.2647 17.704 18.9313 17.704 20.598 17.704C20.687 17.704 20.711 17.727 20.711 17.817C20.711 19.4883 20.711 21.16 20.711 22.832C20.711 22.858 20.711 22.883 20.711 22.924C20.679 22.894 20.656 22.873 20.634 22.852C20.064 22.282 19.4943 21.7113 18.925 21.14C18.9159 21.1266 18.9041 21.1154 18.8902 21.1071C18.8764 21.0987 18.8609 21.0934 18.8449 21.0916C18.8288 21.0898 18.8126 21.0915 18.7972 21.0966C18.7819 21.1017 18.7678 21.11 18.756 21.121C17.7662 21.7391 16.6641 22.1557 15.513 22.347C14.7863 22.4685 14.0471 22.498 13.313 22.435C11.4942 22.281 9.76542 21.5765 8.3571 20.4152C6.94878 19.254 5.92774 17.6912 5.42999 15.935C5.16391 14.9909 5.05546 14.0094 5.10899 13.03C5.1591 12.0334 5.37892 11.0527 5.75899 10.13C5.75899 10.102 5.76999 10.083 5.78599 10.051Z" fill="white"/>
</g>
</svg>
