<svg width="28" height="30" viewBox="0 0 28 30" fill="none" xmlns="http://www.w3.org/2000/svg">
<path id="Path 689" fill-rule="evenodd" clip-rule="evenodd" d="M5.57588 25.7062C4.42329 25.7062 3.27272 25.7132 2.11914 25.7062C1.6305 25.7121 1.15459 25.5504 0.770803 25.2479C0.387018 24.9454 0.118566 24.5204 0.0102374 24.0439C-0.00838337 23.9285 -0.00154492 23.8105 0.0302844 23.698C0.0621137 23.5856 0.118154 23.4815 0.194481 23.393C2.63882 21.2215 4.25379 18.2691 4.76376 15.0395C5.06299 13.217 5.24795 11.3776 5.31753 9.53196C5.37405 8.36171 5.70696 7.22147 6.289 6.20464C6.87104 5.18782 7.68564 4.32332 8.66612 3.68194C9.64489 2.9787 10.7781 2.5206 11.9707 2.34611C12.2631 2.30004 12.4163 2.20792 12.3312 1.85443C12.2721 1.55576 12.3021 1.24629 12.4175 0.964541C12.5329 0.682788 12.7285 0.441156 12.9801 0.269694C13.2317 0.0982317 13.5281 0.00451157 13.8326 0.000158809C14.137 -0.00419395 14.436 0.0810166 14.6924 0.245216C14.9744 0.397634 15.1964 0.64109 15.3222 0.935876C15.448 1.23066 15.4703 1.55939 15.3853 1.86845C15.2802 2.27801 15.5406 2.30504 15.8159 2.35812C17.1425 2.56502 18.3939 3.10836 19.4507 3.9363C20.5076 4.76425 21.3348 5.84919 21.8532 7.08762C22.1647 7.85691 22.3343 8.67621 22.3539 9.50593C22.3574 12.2758 22.7995 15.0276 23.6637 17.6591C24.4252 19.8445 25.7396 21.7954 27.4789 23.3219C27.6072 23.4146 27.6991 23.5491 27.7389 23.7022C27.7787 23.8554 27.764 24.0176 27.6972 24.161C27.5551 24.6187 27.2677 25.0176 26.8784 25.2972C26.4892 25.5767 26.0194 25.7217 25.5403 25.7102C23.2692 25.7102 20.998 25.7212 18.7309 25.7002C18.2643 25.7002 18.1031 25.8313 18.068 26.311C17.9313 27.3498 17.415 28.3012 16.6186 28.982C15.8223 29.6629 14.8022 30.025 13.7548 29.9987C12.7073 29.9723 11.7067 29.5593 10.9456 28.8393C10.1845 28.1192 9.71678 27.143 9.63244 26.0987C9.62543 25.7502 9.41114 25.7062 9.13175 25.7082C7.94713 25.7092 6.7615 25.7052 5.57588 25.7062ZM13.7972 28.7203L14.1476 28.4009C14.0014 28.3067 13.8633 28.1465 13.708 28.1275C13.1307 28.0638 12.5925 27.8043 12.1831 27.3922C11.7737 26.98 11.5178 26.4402 11.4579 25.8624C11.4379 25.7122 11.2677 25.581 11.1676 25.4408C11.0674 25.605 10.8842 25.7703 10.8872 25.9335C10.954 26.671 11.2855 27.3595 11.8204 27.8717C12.3552 28.384 13.0574 28.6854 13.7972 28.7203Z" fill="#707070"/>
</svg>
