<svg width="19" height="29" viewBox="0 0 19 29" fill="none" xmlns="http://www.w3.org/2000/svg">
<path fill-rule="evenodd" clip-rule="evenodd" d="M5.43804 4.91299C5.58604 3.41299 5.58603 3.41299 7.06203 3.31299C7.06203 3.00199 7.06203 2.68099 7.06203 2.36099C7.06203 1.77752 7.29383 1.21794 7.70641 0.805359C8.11899 0.392779 8.67857 0.161011 9.26205 0.161011C9.84552 0.161011 10.4051 0.392779 10.8177 0.805359C11.2303 1.21794 11.462 1.77752 11.462 2.36099C11.462 2.66099 11.462 2.96599 11.462 3.26099C12.951 3.52799 12.951 3.52799 13.085 4.91699C13.799 4.91699 14.524 4.92999 15.249 4.91699C15.6368 4.88057 16.0277 4.92917 16.3947 5.05942C16.7617 5.18966 17.0959 5.39843 17.3739 5.67111C17.6519 5.9438 17.8671 6.27384 18.0044 6.63824C18.1418 7.00265 18.1979 7.39265 18.169 7.78101C18.115 13.863 18.1481 19.946 18.146 26.028C18.2016 26.4053 18.1681 26.7905 18.0482 27.1526C17.9284 27.5147 17.7254 27.8437 17.4557 28.1134C17.1859 28.3831 16.8568 28.5859 16.4947 28.7056C16.1325 28.8254 15.7474 28.8587 15.37 28.803C11.2994 28.809 7.22871 28.809 3.15804 28.803C2.78076 28.8586 2.39568 28.8253 2.03359 28.7056C1.6715 28.5859 1.34243 28.3832 1.07262 28.1137C0.802816 27.8442 0.599746 27.5153 0.479667 27.1533C0.359589 26.7914 0.325817 26.4063 0.381035 26.029C0.381035 19.946 0.413024 13.864 0.358024 7.78198C0.329024 7.3937 0.385043 7.00376 0.522178 6.63934C0.659313 6.27492 0.874273 5.9448 1.15206 5.67197C1.42985 5.39913 1.76381 5.19013 2.13064 5.05957C2.49746 4.92901 2.88832 4.88001 3.27602 4.91599C3.98002 4.92599 4.68704 4.91299 5.43804 4.91299ZM13.0601 6.18799C13.0471 6.38799 13.033 6.52499 13.03 6.66199C13.005 7.74099 12.997 7.74899 11.882 7.74899C10.226 7.74899 8.57103 7.74299 6.91503 7.74899C5.49403 7.75599 5.47804 7.78599 5.47604 6.36899C5.47604 6.32799 5.44003 6.28801 5.41903 6.24701C5.37803 6.22801 5.33704 6.19201 5.29504 6.19101C4.58604 6.18101 3.87702 6.17 3.16802 6.172C2.01302 6.172 1.52803 6.65099 1.52703 7.79099C1.52703 13.8463 1.52703 19.9013 1.52703 25.956C1.52703 27.139 2.02704 27.636 3.19604 27.636C7.2167 27.636 11.2377 27.636 15.259 27.636C16.524 27.636 16.994 27.161 16.994 25.878C16.994 21.2187 16.994 16.559 16.994 11.899C16.994 10.48 17.001 9.061 16.994 7.642C17.0329 7.30919 16.9425 6.97418 16.7415 6.70605C16.5406 6.43793 16.2444 6.25714 15.914 6.20099C14.976 6.14399 14.035 6.18799 13.058 6.18799H13.0601ZM11.858 4.60001H6.67803V6.53299H11.858V4.60001ZM10.242 3.323C10.231 2.683 10.48 1.98099 9.83303 1.58099C9.65602 1.49383 9.46134 1.44849 9.26403 1.44849C9.06672 1.44849 8.87204 1.49383 8.69503 1.58099C8.06603 1.98099 8.27604 2.68099 8.29504 3.32199L10.242 3.323Z" fill="black"/>
<path fill-rule="evenodd" clip-rule="evenodd" d="M11.5701 13.02C12.2071 12.36 12.8301 11.72 13.4461 11.07C13.7511 10.748 14.1461 10.505 14.4461 10.914C14.5048 11.0739 14.5231 11.2459 14.4994 11.4146C14.4756 11.5832 14.4106 11.7435 14.3102 11.881C13.6102 12.681 12.8301 13.398 12.0811 14.149C12.016 14.2413 11.9293 14.3162 11.8286 14.3673C11.728 14.4185 11.6163 14.4443 11.5034 14.4425C11.3905 14.4408 11.2797 14.4115 11.1807 14.3572C11.0816 14.3029 10.9974 14.2253 10.9352 14.131C10.555 13.7787 10.1942 13.4062 9.85416 13.015C9.71616 12.83 9.78115 12.493 9.75415 12.225C10.0472 12.197 10.3982 12.056 10.6212 12.169C10.9733 12.41 11.2923 12.6961 11.5701 13.02Z" fill="black"/>
<path fill-rule="evenodd" clip-rule="evenodd" d="M11.588 18.155C12.236 17.472 12.8701 16.811 13.4951 16.142C13.7871 15.829 14.18 15.642 14.442 16.009C14.5043 16.1686 14.5261 16.3412 14.5055 16.5113C14.4849 16.6814 14.4226 16.8438 14.324 16.984C13.624 17.784 12.845 18.504 12.093 19.252C12.0287 19.3454 11.9426 19.4218 11.8422 19.4746C11.7417 19.5274 11.63 19.555 11.5165 19.555C11.4031 19.555 11.2913 19.5274 11.1909 19.4746C11.0905 19.4218 11.0044 19.3454 10.94 19.252C10.5569 18.9027 10.1968 18.5289 9.86206 18.133C9.72306 17.933 9.81405 17.577 9.80105 17.292C10.0961 17.292 10.44 17.192 10.673 17.318C11.0122 17.5572 11.3196 17.8385 11.588 18.155Z" fill="black"/>
<path fill-rule="evenodd" clip-rule="evenodd" d="M11.455 23.341C12.225 22.553 12.855 21.919 13.476 21.268C13.769 20.96 14.125 20.768 14.447 21.088C14.785 21.421 14.647 21.817 14.314 22.143C13.574 22.871 12.841 23.608 12.114 24.343C12.0465 24.4414 11.9557 24.5216 11.8497 24.5766C11.7437 24.6315 11.6259 24.6595 11.5065 24.658C11.3872 24.6565 11.27 24.6256 11.1655 24.568C11.0609 24.5105 10.9721 24.428 10.907 24.328C10.589 23.98 10.247 23.652 9.90702 23.323C9.62302 23.047 9.45203 22.75 9.79303 22.418C9.85519 22.3456 9.93343 22.2888 10.0215 22.2521C10.1095 22.2154 10.205 22.1998 10.3001 22.2066C10.3953 22.2134 10.4875 22.2424 10.5695 22.2912C10.6514 22.3401 10.7208 22.4075 10.772 22.488C10.99 22.738 11.186 23.006 11.455 23.341Z" fill="black"/>
<path fill-rule="evenodd" clip-rule="evenodd" d="M6.01108 14.423C5.51702 14.4615 5.02041 14.4525 4.52808 14.396C4.29008 14.349 4.11008 14.009 3.90308 13.796C4.10308 13.611 4.28808 13.276 4.49408 13.266C5.55517 13.2136 6.61826 13.2163 7.67908 13.274C7.87908 13.285 8.21507 13.659 8.19507 13.831C8.15602 13.9635 8.08455 14.0842 7.98712 14.1822C7.88969 14.2801 7.76937 14.3523 7.63705 14.392C7.09663 14.4436 6.55308 14.454 6.01108 14.423Z" fill="black"/>
<path fill-rule="evenodd" clip-rule="evenodd" d="M6.09503 18.372C6.61224 18.3407 7.1311 18.349 7.64703 18.397C7.86503 18.431 8.21202 18.761 8.19302 18.92C8.16702 19.142 7.86203 19.493 7.66003 19.505C6.60126 19.5666 5.53982 19.5666 4.48105 19.505C4.28105 19.492 4.09703 19.091 3.90503 18.869C4.11603 18.703 4.31202 18.426 4.54202 18.393C5.05851 18.3489 5.57747 18.3413 6.09503 18.37V18.372Z" fill="black"/>
<path fill-rule="evenodd" clip-rule="evenodd" d="M6.05195 23.49C6.59289 23.4632 7.13497 23.4709 7.67494 23.513C7.87494 23.539 8.22395 23.863 8.19795 23.989C8.14895 24.23 7.89095 24.603 7.69795 24.613C6.61541 24.6718 5.53048 24.6718 4.44795 24.613C4.25495 24.603 3.95395 24.236 3.93995 24.013C3.92895 23.847 4.27595 23.536 4.49495 23.502C5.01093 23.455 5.52971 23.4466 6.04695 23.477L6.05195 23.49Z" fill="black"/>
</svg>
