<svg width="29" height="28" viewBox="0 0 29 28" fill="none" xmlns="http://www.w3.org/2000/svg">
<path d="M14.2749 28C22.0069 28 28.2749 21.732 28.2749 14C28.2749 6.26801 22.0069 0 14.2749 0C6.54292 0 0.274902 6.26801 0.274902 14C0.274902 21.732 6.54292 28 14.2749 28Z" fill="#808080"/>
<path fill-rule="evenodd" clip-rule="evenodd" d="M24.8339 14.337C24.6559 15.109 24.5259 15.896 24.2909 16.649C23.5677 18.9982 22.0441 21.0198 19.9849 22.362C19.8209 22.472 19.6659 22.595 19.4629 22.745L20.1249 24.06L15.9739 23.068L17.9519 20.022L18.6209 21.17C21.5519 19.247 23.1629 16.634 23.0099 13.12C23.005 11.4734 22.5148 9.86476 21.6006 8.49523C20.6864 7.1257 19.3887 6.05604 17.8699 5.42C14.4809 3.864 11.2929 4.44201 8.28189 6.78801L7.1189 5.52401C8.43645 4.34628 10.0277 3.51691 11.7478 3.11141C13.4678 2.70591 15.262 2.73717 16.9669 3.20235C18.6717 3.66753 20.2331 4.55186 21.5089 5.77477C22.7846 6.99768 23.7341 8.52031 24.2709 10.204C24.5319 11.004 24.6509 11.846 24.8349 12.668L24.8339 14.337Z" fill="white"/>
<path fill-rule="evenodd" clip-rule="evenodd" d="M3.5 13.126H5.233C5.319 13.892 5.42001 14.526 5.44501 15.169C5.43205 15.2777 5.39598 15.3825 5.33923 15.4761C5.28249 15.5698 5.20638 15.6502 5.116 15.712C4.73523 15.9364 4.3408 16.1368 3.935 16.312L3.5 13.882V13.126Z" fill="white"/>
<path fill-rule="evenodd" clip-rule="evenodd" d="M13.94 24.172L12.395 23.921L12.695 22.298C13.951 22.228 15 22.338 14.921 23.967L14.394 24.167L13.94 24.172Z" fill="white"/>
<path fill-rule="evenodd" clip-rule="evenodd" d="M19.0301 14.204C17.8071 14.204 16.6041 14.189 15.4021 14.215C15.1098 14.2274 14.8245 14.3083 14.5691 14.451C14.0231 14.751 13.4891 14.828 13.0841 14.309C12.9907 14.206 12.9201 14.0845 12.877 13.9523C12.8339 13.8201 12.8192 13.6803 12.8339 13.542C12.8487 13.4038 12.8925 13.2702 12.9625 13.1501C13.0325 13.03 13.1271 12.926 13.2401 12.845C13.4031 12.6432 13.4876 12.3892 13.4781 12.13C13.4971 10.241 13.4881 8.35199 13.4881 6.42999H14.2341C14.2341 8.32199 14.2341 10.186 14.2341 12.049C14.2341 12.889 14.4571 13.119 15.2901 13.124C16.5211 13.131 17.7521 13.124 19.0281 13.124L19.0301 14.204Z" fill="white"/>
<path fill-rule="evenodd" clip-rule="evenodd" d="M3.7019 11.08L5.37488 7.29401L6.8129 8.29401L5.39789 11.556L3.7019 11.08Z" fill="white"/>
<path fill-rule="evenodd" clip-rule="evenodd" d="M7.31209 19.181L5.99309 20.329C5.52609 19.568 5.06509 18.846 4.64709 18.1C4.59509 18.006 4.7281 17.731 4.8471 17.633C5.1751 17.369 5.54709 17.155 5.92409 16.901L7.31209 19.181Z" fill="white"/>
<path fill-rule="evenodd" clip-rule="evenodd" d="M10.94 21.809L10.291 23.415L7.81201 22.042L8.84302 20.609L10.94 21.809Z" fill="white"/>
</svg>
